<svg width="10" height="10" viewBox="0 0 10 10" fill="none" xmlns="http://www.w3.org/2000/svg">
<path d="M6.69441 3.74809C6.72427 3.71927 6.74809 3.6848 6.76449 3.64669C6.78088 3.60857 6.78952 3.56756 6.7899 3.52607C6.79028 3.48458 6.7824 3.44342 6.7667 3.40501C6.75101 3.3666 6.72782 3.3317 6.69849 3.30234C6.66916 3.27299 6.63428 3.24977 6.59589 3.23404C6.55749 3.21831 6.51634 3.21038 6.47485 3.21072C6.43336 3.21106 6.39235 3.21966 6.35421 3.23602C6.31608 3.25238 6.28158 3.27617 6.25274 3.306L5.00024 4.55809L3.74816 3.306C3.71955 3.2753 3.68505 3.25068 3.64672 3.2336C3.60838 3.21652 3.567 3.20733 3.52504 3.20659C3.48308 3.20585 3.44141 3.21357 3.40249 3.22929C3.36358 3.245 3.32823 3.2684 3.29856 3.29807C3.26889 3.32775 3.24549 3.36309 3.22978 3.40201C3.21406 3.44092 3.20634 3.4826 3.20708 3.52456C3.20782 3.56652 3.217 3.6079 3.23408 3.64623C3.25116 3.68456 3.27579 3.71906 3.30649 3.74767L4.55774 5.00017L3.30566 6.25225C3.25046 6.31149 3.22041 6.38985 3.22184 6.47081C3.22327 6.55176 3.25606 6.62901 3.31332 6.68626C3.37057 6.74352 3.44782 6.77632 3.52878 6.77774C3.60973 6.77917 3.68809 6.74912 3.74733 6.69392L5.00024 5.44184L6.25233 6.69434C6.31157 6.74954 6.38992 6.77959 6.47088 6.77816C6.55184 6.77673 6.62908 6.74394 6.68634 6.68668C6.74359 6.62943 6.77639 6.55218 6.77782 6.47122C6.77924 6.39026 6.74919 6.31191 6.69399 6.25267L5.44274 5.00017L6.69441 3.74809Z" fill="#515256"/>
</svg>
