<svg width="16" height="16" viewBox="0 0 16 16" fill="none" xmlns="http://www.w3.org/2000/svg">
<path fill-rule="evenodd" clip-rule="evenodd" d="M0.75 10.7466C0.948912 10.7466 1.13968 10.8256 1.28033 10.9663C1.42098 11.1069 1.5 11.2977 1.5 11.4966V13.7496C1.5 13.8876 1.612 13.9996 1.75 13.9996H13.75C13.8163 13.9996 13.8799 13.9732 13.9268 13.9264C13.9737 13.8795 14 13.8159 14 13.7496V11.4966C14 11.2977 14.079 11.1069 14.2197 10.9663C14.3603 10.8256 14.5511 10.7466 14.75 10.7466C14.9489 10.7466 15.1397 10.8256 15.2803 10.9663C15.421 11.1069 15.5 11.2977 15.5 11.4966V13.7496C15.5 14.2137 15.3156 14.6588 14.9874 14.987C14.6592 15.3152 14.2141 15.4996 13.75 15.4996H1.75C1.28587 15.4996 0.840752 15.3152 0.512563 14.987C0.184375 14.6588 0 14.2137 0 13.7496V11.4966C0 11.2977 0.0790175 11.1069 0.21967 10.9663C0.360322 10.8256 0.551088 10.7466 0.75 10.7466Z" fill="#818284"/>
<path fill-rule="evenodd" clip-rule="evenodd" d="M7.95215 1.32959C8.15106 1.32959 8.34183 1.40861 8.48248 1.54926C8.62313 1.68991 8.70215 1.88068 8.70215 2.07959V10.1656C8.70215 10.3645 8.62313 10.5553 8.48248 10.6959C8.34183 10.8366 8.15106 10.9156 7.95215 10.9156C7.75324 10.9156 7.56247 10.8366 7.42182 10.6959C7.28117 10.5553 7.20215 10.3645 7.20215 10.1656V2.08059C7.20215 1.88168 7.28117 1.69091 7.42182 1.55026C7.56247 1.40961 7.75324 1.32959 7.95215 1.32959Z" fill="#818284"/>
<path fill-rule="evenodd" clip-rule="evenodd" d="M7.42793 0.213415C7.56803 0.0765946 7.7561 0 7.95193 0C8.14776 0 8.33582 0.0765946 8.47593 0.213415L11.8199 3.47941C11.9593 3.61903 12.038 3.80792 12.0391 4.00517C12.0401 4.20242 11.9634 4.39215 11.8256 4.53326C11.6878 4.67438 11.4999 4.75551 11.3027 4.7591C11.1055 4.76268 10.9148 4.68843 10.7719 4.55241L7.95193 1.79841L5.13193 4.55241C5.06178 4.6227 4.97838 4.67835 4.88656 4.71615C4.79473 4.75395 4.69632 4.77313 4.59702 4.7726C4.49773 4.77206 4.39953 4.75181 4.30812 4.71303C4.21671 4.67424 4.13391 4.61769 4.06453 4.54665C3.99515 4.47561 3.94056 4.39151 3.90394 4.29921C3.86732 4.20691 3.84939 4.10826 3.8512 4.00898C3.853 3.9097 3.8745 3.81176 3.91445 3.72086C3.95441 3.62995 4.01201 3.54788 4.08393 3.47941L7.42793 0.213415Z" fill="#818284"/>
</svg>
